:FULLY-SPECIFIED
:FORCE-ALL-JOINTS-BE-3DOF
:DEGREES
1937
root 5.87537 13.6819 27.9452 -25.9981 70.8674 -29.3409
lfemur -60.9698 4.15349 -1.96101
ltibia 60.3661 -0 0
lfoot 0.793857 -1.98019 -0.0669275
ltoes -31.4356 0 0
rfemur -4.32607 0.422168 17.9082
rtibia 65.3582 -0 0
rfoot -23.8304 -25.1201 -0.00385579
rtoes -28.4022 0 0
lowerback 13.563 4.48991 4.44453
upperback -0.45436 7.04056 3.45665
thorax -7.99967 3.33673 -0.221734
lowerneck -0.882457 15.6866 6.46493
upperneck 6.09327 21.3887 -7.08037
head 3.73018 10.6143 -2.34474
lclavicle 8.50301e-14 -4.85035e-14 0
lhumerus 70.5508 -31.4379 44.3315
lradius 56.8011 -0 0
lwrist 15.9285 0 0
lhand -7.32127 32.3006 -0.057301
lfingers 7.12502 -0 0
lthumb 18.5599 61.406 -0.0620448
rclavicle 8.50301e-14 -4.85035e-14 0
rhumerus -35.0357 30.6677 -75.8905
rradius 90.6467 -0 0
rwrist -31.4425 0 0
rhand -14.2428 -45.0087 0.0556944
rfingers 7.12502 -0 0
rthumb 11.8926 -74.6136 0.0625655
1938
root 5.75445 13.7027 27.9762 -27.5925 71.93 -31.0579
lfemur -60.79 3.25524 -1.82477
ltibia 58.1529 -0 0
lfoot 1.17453 -2.43507 -0.0843485
ltoes -31.07 0 0
rfemur -4.82187 1.22304 18.4727
rtibia 65.4466 -0 0
rfoot -23.9417 -25.0304 -0.00485896
rtoes -29.1271 0 0
lowerback 13.6077 4.41906 4.46442
upperback -0.470089 6.95396 3.44722
thorax -8.0411 3.29269 -0.229543
lowerneck -0.904738 15.6314 6.49864
upperneck 6.03442 21.3113 -7.13686
head 3.69934 10.5743 -2.35817
lclavicle 8.50301e-14 -4.85035e-14 0
lhumerus 72.0604 -32.1682 42.7314
lradius 60.2818 -0 0
lwrist 16.6801 0 0
lhand -7.8157 32.6004 -0.0722159
lfingers 7.12502 -0 0
lthumb 18.0837 61.7431 -0.0781947
rclavicle 8.50301e-14 -4.85035e-14 0
rhumerus -34.1585 31.8313 -75.693
rradius 90.9182 -0 0
rwrist -31.7868 0 0
rhand -13.6738 -44.7555 0.0701923
rfingers 7.12502 -0 0
rthumb 12.4406 -74.3182 0.0788519
1939
root 5.63172 13.7249 28.0089 -29.5382 73.0557 -33.1351
lfemur -60.599 2.28743 -1.68132
ltibia 55.7695 -0 0
lfoot 1.58463 -2.92507 -0.0997286
ltoes -30.6763 0 0
rfemur -5.34718 2.09089 19.0732
rtibia 65.5418 -0 0
rfoot -24.0615 -24.9338 -0.00574446
rtoes -29.9078 0 0
lowerback 13.6558 4.34273 4.48579
upperback -0.487009 6.8607 3.43708
thorax -8.08572 3.24525 -0.237917
lowerneck -0.928763 15.5721 6.53497
upperneck 5.97118 21.2279 -7.19757
head 3.66614 10.5312 -2.3726
lclavicle 8.50301e-14 -4.85035e-14 0
lhumerus 73.726 -32.9137 40.969
lradius 64.0303 -0 0
lwrist 17.4894 0 0
lhand -8.34824 32.9235 -0.0853834
lfingers 7.12502 -0 0
lthumb 17.5709 62.1064 -0.0924524
rclavicle 8.50301e-14 -4.85035e-14 0
rhumerus -33.1957 33.0812 -75.4537
rradius 91.2107 -0 0
rwrist -32.1575 0 0
rhand -13.061 -44.4826 0.0829919
rfingers 7.12502 -0 0
rthumb 13.0308 -73.9999 0.0932307
1940
root 5.50836 13.7481 28.0428 -31.8964 74.2177 -35.6318
lfemur -60.4002 1.26594 -1.53357
ltibia 53.2551 -0 0
lfoot 2.01738 -3.44209 -0.112151
ltoes -30.261 0 0
rfemur -5.89183 3.01231 19.6984
rtibia 65.6422 -0 0
rfoot -24.188 -24.8319 -0.00645957
rtoes -30.7314 0 0
lowerback 13.7065 4.26219 4.50825
upperback -0.504837 6.76231 3.42643
thorax -8.13277 3.19519 -0.246711
lowerneck -0.954143 15.5095 6.57331
upperneck 5.90461 21.1399 -7.26147
head 3.63113 10.4857 -2.3878
lclavicle 8.50301e-14 -4.85035e-14 0
lhumerus 75.527 -33.6525 39.0665
lradius 67.9847 -0 0
lwrist 18.3433 0 0
lhand -8.91012 33.2644 -0.0960189
lfingers 7.12502 -0 0
lthumb 17.0297 62.4897 -0.103969
rclavicle 8.50301e-14 -4.85035e-14 0
rhumerus -32.1579 34.396 -75.1699
rradius 91.5192 -0 0
rwrist -32.5486 0 0
rhand -12.4144 -44.1946 0.0933305
rfingers 7.12502 -0 0
rthumb 13.6535 -73.664 0.104845
1941
root 5.38555 13.7721 28.0776 -34.74 75.3879 -38.6184
lfemur -60.197 0.206672 -1.38422
ltibia 50.649 -0 0
lfoot 2.46602 -3.97805 -0.120905
ltoes -29.8305 0 0
rfemur -6.44624 3.97348 20.3377
rtibia 65.7462 -0 0
rfoot -24.3191 -24.7263 -0.00696341
rtoes -31.585 0 0
lowerback 13.759 4.1787 4.53146
upperback -0.523292 6.66034 3.41542
thorax -8.18153 3.1433 -0.255782
lowerneck -0.980487 15.4446 6.61306
upperneck 5.83576 21.0485 -7.32754
head 3.59486 10.4386 -2.40352
lclavicle 8.50301e-14 -4.85035e-14 0
lhumerus 77.44 -34.3645 37.0491
lradius 72.0832 -0 0
lwrist 19.2282 0 0
lhand -9.49253 33.6179 -0.103513
lfingers 7.12502 -0 0
lthumb 16.4688 62.887 -0.112083
rclavicle 8.50301e-14 -4.85035e-14 0
rhumerus -31.056 35.7539 -74.84
rradius 91.839 -0 0
rwrist -32.9539 0 0
rhand -11.7443 -43.896 0.100616
rfingers 7.12502 -0 0
rthumb 14.299 -73.3158 0.113029
1942
root 5.26446 13.7964 28.1127 -38.1507 76.5363 -42.1747
lfemur -59.9926 -0.874422 -1.23571
ltibia 47.9906 -0 0
lfoot 2.92373 -4.52483 -0.12551
ltoes -29.3914 0 0
rfemur -7.00142 4.96023 20.9812
rtibia 65.8524 -0 0
rfoot -24.4528 -24.6186 -0.00722845
rtoes -32.4557 0 0
lowerback 13.8126 4.09351 4.55505
upperback -0.542094 6.5563 3.40423
thorax -8.23126 3.09037 -0.264988
lowerneck -1.0074 15.3784 6.65363
upperneck 5.76568 20.9553 -7.39478
head 3.55789 10.3905 -2.41952
lclavicle 8.50301e-14 -4.85035e-14 0
lhumerus 79.4381 -35.032 34.9452
lradius 76.2642 -0 0
lwrist 20.131 0 0
lhand -10.0867 33.9785 -0.107455
lfingers 7.12502 -0 0
lthumb 15.8965 63.2925 -0.116352
rclavicle 8.50301e-14 -4.85035e-14 0
rhumerus -29.9018 37.1333 -74.4637
rradius 92.1652 -0 0
rwrist -33.3674 0 0
rhand -11.0606 -43.5914 0.104448
rfingers 7.12502 -0 0
rthumb 14.9575 -72.9604 0.117334
1943
root 5.14628 13.8208 28.1477 -42.2113 77.6318 -46.3812
lfemur -59.7898 -1.96136 -1.09029
ltibia 45.319 -0 0
lfoot 3.38372 -5.07432 -0.125737
ltoes -28.9501 0 0
rfemur -7.549 5.958 21.6191
rtibia 65.959 -0 0
rfoot -24.5871 -24.5103 -0.00724151
rtoes -33.3307 0 0
lowerback 13.8663 4.00787 4.57867
upperback -0.560963 6.45176 3.39302
thorax -8.28122 3.03716 -0.274194
lowerneck -1.03448 15.312 6.69442
upperneck 5.69543 20.8615 -7.46219
head 3.52075 10.3421 -2.43557
lclavicle 8.50301e-14 -4.85035e-14 0
lhumerus 81.491 -35.6411 32.7866
lradius 80.4658 -0 0
lwrist 21.0382 0 0
lhand -10.6838 34.3409 -0.10765
lfingers 7.12502 -0 0
lthumb 15.3215 63.6999 -0.116563
rclavicle 8.50301e-14 -4.85035e-14 0
rhumerus -28.7085 38.5131 -74.0428
rradius 92.493 -0 0
rwrist -33.7829 0 0
rhand -10.3736 -43.2852 0.104637
rfingers 7.12502 -0 0
rthumb 15.6192 -72.6033 0.117546
1944
root 5.03219 13.8448 28.1821 -46.9893 78.6417 -51.3034
lfemur -59.5917 -3.03815 -0.949977
ltibia 42.6737 -0 0
lfoot 3.83919 -5.61842 -0.121615
ltoes -28.5132 0 0
rfemur -8.08122 6.95186 22.2426
rtibia 66.0647 -0 0
rfoot -24.7202 -24.4031 -0.00700428
rtoes -34.1972 0 0
lowerback 13.9195 3.92305 4.60198
upperback -0.579624 6.34823 3.38195
thorax -8.33068 2.98446 -0.283262
lowerneck -1.06134 15.2462 6.73483
upperneck 5.62602 20.7686 -7.52877
head 3.484 10.2942 -2.45142
lclavicle 8.50301e-14 -4.85035e-14 0
lhumerus 83.565 -36.1809 30.6084
lradius 84.6261 -0 0
lwrist 21.9364 0 0
lhand -11.275 34.6997 -0.104121
lfingers 7.12502 -0 0
lthumb 14.752 64.1033 -0.112742
rclavicle 8.50301e-14 -4.85035e-14 0
rhumerus -27.4906 39.8721 -73.581
rradius 92.8176 -0 0
rwrist -34.1944 0 0
rhand -9.69327 -42.982 0.101207
rfingers 7.12502 -0 0
rthumb 16.2745 -72.2497 0.113693
